<svg width="24" height="24" viewBox="0 0 24 24" fill="none" xmlns="http://www.w3.org/2000/svg">
<rect width="24" height="24" rx="12" fill="#7F56D9"/>
<path fill-rule="evenodd" clip-rule="evenodd" d="M12 22C6.47726 22 2 17.5227 2 12C2 8.87501 3.83515 6.22497 3.83515 6.22497L5.81282 7.64126C5.81282 7.64126 4.4324 9.65852 4.43236 12C4.4323 15.7654 7.18251 18.8881 10.7837 19.4698L10.7837 16.99C8.53457 16.4437 6.86474 14.4171 6.86467 12C7.99747 12 8.18497 12 9.29707 12C9.29707 13.4927 10.5073 14.7029 12 14.7029C13.4927 14.7029 14.7029 13.4927 14.7029 12C14.7029 11.7073 14.6562 11.4252 14.5702 11.1612C14.2288 10.1149 13.2667 9.34938 12.119 9.29963C12.0796 9.29792 12.0399 9.29706 12 9.29706C10.7877 9.29706 9.71353 8.70581 9.0502 7.79612C8.61082 7.19364 8.35145 6.4514 8.35145 5.64853L8.36249 5.3623C8.50832 3.48092 10.0812 2 12 2C12.0397 2 12.5556 2.00023 12.5952 2.00069C14.7184 2.0254 16.2061 2.71187 17.8146 3.86338C20.3485 5.67755 22 8.64601 22 12C22 17.5227 17.5227 22 12 22ZM13.2162 19.4698C16.8175 18.8879 19.5677 15.7654 19.5677 12C19.5677 10.1908 18.9327 8.52997 17.8737 7.22791C16.6188 5.68516 14.6168 4.46448 12.5952 4.4333C12.5556 4.43269 12.0397 4.43238 12 4.43238C11.3283 4.43238 10.7837 4.97682 10.7837 5.64853C10.7837 6.32024 11.3283 6.86468 12 6.86468C12.0398 6.86468 12.0795 6.86513 12.119 6.86603C13.1714 6.88997 14.1454 7.23045 14.9498 7.79612C15.6302 8.27435 16.1892 8.91351 16.5715 9.65852C16.9319 10.3606 17.1352 11.1564 17.1352 12C17.1352 14.4171 15.4652 16.4437 13.2162 16.99L13.2162 19.4698Z" fill="white"/>
</svg>
